<svg width="37" height="36" viewBox="0 0 37 36" fill="none" xmlns="http://www.w3.org/2000/svg">
<path d="M21.1671 5.26502L23.8804 10.545C24.2504 11.28 25.2371 11.985 26.0696 12.12L30.9875 12.915C34.1325 13.425 34.8725 15.645 32.6062 17.835L28.7829 21.555C28.1354 22.185 27.7808 23.4 27.9812 24.27L29.0758 28.875C29.9391 32.52 27.9504 33.93 24.6358 32.025L20.0262 29.37C19.1937 28.89 17.8216 28.89 16.9737 29.37L12.3641 32.025C9.06498 33.93 7.06082 32.505 7.92415 28.875L9.01873 24.27C9.21915 23.4 8.86456 22.185 8.21707 21.555L4.39373 17.835C2.1429 15.645 2.86748 13.425 6.01248 12.915L10.9304 12.12C11.7475 11.985 12.7341 11.28 13.1041 10.545L15.8175 5.26502C17.2975 2.40002 19.7025 2.40002 21.1671 5.26502Z" fill="#FFC815" stroke="#FFC815" stroke-width="1.5" stroke-linecap="round" stroke-linejoin="round"/>
</svg>
